<svg width="602pt" height="332pt" viewBox="0.00 0.00 602.00 332.00" xmlns="http://www.w3.org/2000/svg" xmlns:xlink="http://www.w3.org/1999/xlink">
<g id="graph0" class="graph" transform="scale(1 1) rotate(0) translate(4 328)">
<title>G</title>
<polygon fill="#ffffff" stroke="transparent" points="-4,4 -4,-328 598,-328 598,4 -4,4"></polygon>
<!-- 0&#45;9 -->
<g id="node1" class="node">
<title>0-9</title>
<ellipse fill="none" stroke="#000000" cx="315" cy="-306" rx="27" ry="18"></ellipse>
<text text-anchor="middle" x="315" y="-301.8" font-family="Times,serif" font-size="14.00" fill="#000000">0-9</text>
</g>
<!-- 0&#45;4 -->
<g id="node2" class="node">
<title>0-4</title>
<ellipse fill="none" stroke="#000000" cx="243" cy="-234" rx="27" ry="18"></ellipse>
<text text-anchor="middle" x="243" y="-229.8" font-family="Times,serif" font-size="14.00" fill="#000000">0-4</text>
</g>
<!-- 0&#45;9&#45;&gt;0&#45;4 -->
<g id="edge1" class="edge">
<title>0-9-&gt;0-4</title>
<path fill="none" stroke="#000000" d="M299.7307,-290.7307C289.803,-280.803 276.6847,-267.6847 265.5637,-256.5637"></path>
<polygon fill="#000000" stroke="#000000" points="267.7933,-253.8436 258.2473,-249.2473 262.8436,-258.7933 267.7933,-253.8436"></polygon>
</g>
<!-- 5&#45;9 -->
<g id="node3" class="node">
<title>5-9</title>
<ellipse fill="none" stroke="#000000" cx="387" cy="-234" rx="27" ry="18"></ellipse>
<text text-anchor="middle" x="387" y="-229.8" font-family="Times,serif" font-size="14.00" fill="#000000">5-9</text>
</g>
<!-- 0&#45;9&#45;&gt;5&#45;9 -->
<g id="edge2" class="edge">
<title>0-9-&gt;5-9</title>
<path fill="none" stroke="#000000" d="M330.2693,-290.7307C340.197,-280.803 353.3153,-267.6847 364.4363,-256.5637"></path>
<polygon fill="#000000" stroke="#000000" points="367.1564,-258.7933 371.7527,-249.2473 362.2067,-253.8436 367.1564,-258.7933"></polygon>
</g>
<!-- 0&#45;2 -->
<g id="node4" class="node">
<title>0-2</title>
<ellipse fill="none" stroke="#000000" cx="135" cy="-162" rx="27" ry="18"></ellipse>
<text text-anchor="middle" x="135" y="-157.8" font-family="Times,serif" font-size="14.00" fill="#000000">0-2</text>
</g>
<!-- 0&#45;4&#45;&gt;0&#45;2 -->
<g id="edge3" class="edge">
<title>0-4-&gt;0-2</title>
<path fill="none" stroke="#000000" d="M223.6918,-221.1278C206.6445,-209.763 181.5981,-193.0654 162.4656,-180.3104"></path>
<polygon fill="#000000" stroke="#000000" points="164.4031,-177.3956 154.1411,-174.7607 160.5201,-183.2199 164.4031,-177.3956"></polygon>
</g>
<!-- 3&#45;4 -->
<g id="node5" class="node">
<title>3-4</title>
<ellipse fill="none" stroke="#000000" cx="243" cy="-162" rx="27" ry="18"></ellipse>
<text text-anchor="middle" x="243" y="-157.8" font-family="Times,serif" font-size="14.00" fill="#000000">3-4</text>
</g>
<!-- 0&#45;4&#45;&gt;3&#45;4 -->
<g id="edge4" class="edge">
<title>0-4-&gt;3-4</title>
<path fill="none" stroke="#000000" d="M243,-215.8314C243,-208.131 243,-198.9743 243,-190.4166"></path>
<polygon fill="#000000" stroke="#000000" points="246.5001,-190.4132 243,-180.4133 239.5001,-190.4133 246.5001,-190.4132"></polygon>
</g>
<!-- 5&#45;7 -->
<g id="node12" class="node">
<title>5-7</title>
<ellipse fill="none" stroke="#000000" cx="387" cy="-162" rx="27" ry="18"></ellipse>
<text text-anchor="middle" x="387" y="-157.8" font-family="Times,serif" font-size="14.00" fill="#000000">5-7</text>
</g>
<!-- 5&#45;9&#45;&gt;5&#45;7 -->
<g id="edge11" class="edge">
<title>5-9-&gt;5-7</title>
<path fill="none" stroke="#000000" d="M387,-215.8314C387,-208.131 387,-198.9743 387,-190.4166"></path>
<polygon fill="#000000" stroke="#000000" points="390.5001,-190.4132 387,-180.4133 383.5001,-190.4133 390.5001,-190.4132"></polygon>
</g>
<!-- 8&#45;9 -->
<g id="node13" class="node">
<title>8-9</title>
<ellipse fill="none" stroke="#000000" cx="495" cy="-162" rx="27" ry="18"></ellipse>
<text text-anchor="middle" x="495" y="-157.8" font-family="Times,serif" font-size="14.00" fill="#000000">8-9</text>
</g>
<!-- 5&#45;9&#45;&gt;8&#45;9 -->
<g id="edge12" class="edge">
<title>5-9-&gt;8-9</title>
<path fill="none" stroke="#000000" d="M406.3082,-221.1278C423.3555,-209.763 448.4019,-193.0654 467.5344,-180.3104"></path>
<polygon fill="#000000" stroke="#000000" points="469.4799,-183.2199 475.8589,-174.7607 465.5969,-177.3956 469.4799,-183.2199"></polygon>
</g>
<!-- 0&#45;1 -->
<g id="node6" class="node">
<title>0-1</title>
<ellipse fill="none" stroke="#000000" cx="63" cy="-90" rx="27" ry="18"></ellipse>
<text text-anchor="middle" x="63" y="-85.8" font-family="Times,serif" font-size="14.00" fill="#000000">0-1</text>
</g>
<!-- 0&#45;2&#45;&gt;0&#45;1 -->
<g id="edge5" class="edge">
<title>0-2-&gt;0-1</title>
<path fill="none" stroke="#000000" d="M119.7307,-146.7307C109.803,-136.803 96.6847,-123.6847 85.5637,-112.5637"></path>
<polygon fill="#000000" stroke="#000000" points="87.7933,-109.8436 78.2473,-105.2473 82.8436,-114.7933 87.7933,-109.8436"></polygon>
</g>
<!-- 2 -->
<g id="node7" class="node">
<title>2</title>
<ellipse fill="none" stroke="#000000" cx="135" cy="-90" rx="27" ry="18"></ellipse>
<text text-anchor="middle" x="135" y="-85.8" font-family="Times,serif" font-size="14.00" fill="#000000">2</text>
</g>
<!-- 0&#45;2&#45;&gt;2 -->
<g id="edge6" class="edge">
<title>0-2-&gt;2</title>
<path fill="none" stroke="#000000" d="M135,-143.8314C135,-136.131 135,-126.9743 135,-118.4166"></path>
<polygon fill="#000000" stroke="#000000" points="138.5001,-118.4132 135,-108.4133 131.5001,-118.4133 138.5001,-118.4132"></polygon>
</g>
<!-- 3 -->
<g id="node10" class="node">
<title>3</title>
<ellipse fill="none" stroke="#000000" cx="207" cy="-90" rx="27" ry="18"></ellipse>
<text text-anchor="middle" x="207" y="-85.8" font-family="Times,serif" font-size="14.00" fill="#000000">3</text>
</g>
<!-- 3&#45;4&#45;&gt;3 -->
<g id="edge9" class="edge">
<title>3-4-&gt;3</title>
<path fill="none" stroke="#000000" d="M234.2854,-144.5708C230.0403,-136.0807 224.8464,-125.6929 220.1337,-116.2674"></path>
<polygon fill="#000000" stroke="#000000" points="223.237,-114.6477 215.6343,-107.2687 216.976,-117.7782 223.237,-114.6477"></polygon>
</g>
<!-- 4 -->
<g id="node11" class="node">
<title>4</title>
<ellipse fill="none" stroke="#000000" cx="279" cy="-90" rx="27" ry="18"></ellipse>
<text text-anchor="middle" x="279" y="-85.8" font-family="Times,serif" font-size="14.00" fill="#000000">4</text>
</g>
<!-- 3&#45;4&#45;&gt;4 -->
<g id="edge10" class="edge">
<title>3-4-&gt;4</title>
<path fill="none" stroke="#000000" d="M251.7146,-144.5708C255.9597,-136.0807 261.1536,-125.6929 265.8663,-116.2674"></path>
<polygon fill="#000000" stroke="#000000" points="269.024,-117.7782 270.3657,-107.2687 262.763,-114.6477 269.024,-117.7782"></polygon>
</g>
<!-- 0 -->
<g id="node8" class="node">
<title>0</title>
<ellipse fill="none" stroke="#000000" cx="27" cy="-18" rx="27" ry="18"></ellipse>
<text text-anchor="middle" x="27" y="-13.8" font-family="Times,serif" font-size="14.00" fill="#000000">0</text>
</g>
<!-- 0&#45;1&#45;&gt;0 -->
<g id="edge7" class="edge">
<title>0-1-&gt;0</title>
<path fill="none" stroke="#000000" d="M54.2854,-72.5708C50.0403,-64.0807 44.8464,-53.6929 40.1337,-44.2674"></path>
<polygon fill="#000000" stroke="#000000" points="43.237,-42.6477 35.6343,-35.2687 36.976,-45.7782 43.237,-42.6477"></polygon>
</g>
<!-- 1 -->
<g id="node9" class="node">
<title>1</title>
<ellipse fill="none" stroke="#000000" cx="99" cy="-18" rx="27" ry="18"></ellipse>
<text text-anchor="middle" x="99" y="-13.8" font-family="Times,serif" font-size="14.00" fill="#000000">1</text>
</g>
<!-- 0&#45;1&#45;&gt;1 -->
<g id="edge8" class="edge">
<title>0-1-&gt;1</title>
<path fill="none" stroke="#000000" d="M71.7146,-72.5708C75.9597,-64.0807 81.1536,-53.6929 85.8663,-44.2674"></path>
<polygon fill="#000000" stroke="#000000" points="89.024,-45.7782 90.3657,-35.2687 82.763,-42.6477 89.024,-45.7782"></polygon>
</g>
<!-- 5&#45;6 -->
<g id="node14" class="node">
<title>5-6</title>
<ellipse fill="none" stroke="#000000" cx="351" cy="-90" rx="27" ry="18"></ellipse>
<text text-anchor="middle" x="351" y="-85.8" font-family="Times,serif" font-size="14.00" fill="#000000">5-6</text>
</g>
<!-- 5&#45;7&#45;&gt;5&#45;6 -->
<g id="edge13" class="edge">
<title>5-7-&gt;5-6</title>
<path fill="none" stroke="#000000" d="M378.2854,-144.5708C374.0403,-136.0807 368.8464,-125.6929 364.1337,-116.2674"></path>
<polygon fill="#000000" stroke="#000000" points="367.237,-114.6477 359.6343,-107.2687 360.976,-117.7782 367.237,-114.6477"></polygon>
</g>
<!-- 7 -->
<g id="node15" class="node">
<title>7</title>
<ellipse fill="none" stroke="#000000" cx="423" cy="-90" rx="27" ry="18"></ellipse>
<text text-anchor="middle" x="423" y="-85.8" font-family="Times,serif" font-size="14.00" fill="#000000">7</text>
</g>
<!-- 5&#45;7&#45;&gt;7 -->
<g id="edge14" class="edge">
<title>5-7-&gt;7</title>
<path fill="none" stroke="#000000" d="M395.7146,-144.5708C399.9597,-136.0807 405.1536,-125.6929 409.8663,-116.2674"></path>
<polygon fill="#000000" stroke="#000000" points="413.024,-117.7782 414.3657,-107.2687 406.763,-114.6477 413.024,-117.7782"></polygon>
</g>
<!-- 8 -->
<g id="node18" class="node">
<title>8</title>
<ellipse fill="none" stroke="#000000" cx="495" cy="-90" rx="27" ry="18"></ellipse>
<text text-anchor="middle" x="495" y="-85.8" font-family="Times,serif" font-size="14.00" fill="#000000">8</text>
</g>
<!-- 8&#45;9&#45;&gt;8 -->
<g id="edge17" class="edge">
<title>8-9-&gt;8</title>
<path fill="none" stroke="#000000" d="M495,-143.8314C495,-136.131 495,-126.9743 495,-118.4166"></path>
<polygon fill="#000000" stroke="#000000" points="498.5001,-118.4132 495,-108.4133 491.5001,-118.4133 498.5001,-118.4132"></polygon>
</g>
<!-- 9 -->
<g id="node19" class="node">
<title>9</title>
<ellipse fill="none" stroke="#000000" cx="567" cy="-90" rx="27" ry="18"></ellipse>
<text text-anchor="middle" x="567" y="-85.8" font-family="Times,serif" font-size="14.00" fill="#000000">9</text>
</g>
<!-- 8&#45;9&#45;&gt;9 -->
<g id="edge18" class="edge">
<title>8-9-&gt;9</title>
<path fill="none" stroke="#000000" d="M510.2693,-146.7307C520.197,-136.803 533.3153,-123.6847 544.4363,-112.5637"></path>
<polygon fill="#000000" stroke="#000000" points="547.1564,-114.7933 551.7527,-105.2473 542.2067,-109.8436 547.1564,-114.7933"></polygon>
</g>
<!-- 5 -->
<g id="node16" class="node">
<title>5</title>
<ellipse fill="none" stroke="#000000" cx="315" cy="-18" rx="27" ry="18"></ellipse>
<text text-anchor="middle" x="315" y="-13.8" font-family="Times,serif" font-size="14.00" fill="#000000">5</text>
</g>
<!-- 5&#45;6&#45;&gt;5 -->
<g id="edge15" class="edge">
<title>5-6-&gt;5</title>
<path fill="none" stroke="#000000" d="M342.2854,-72.5708C338.0403,-64.0807 332.8464,-53.6929 328.1337,-44.2674"></path>
<polygon fill="#000000" stroke="#000000" points="331.237,-42.6477 323.6343,-35.2687 324.976,-45.7782 331.237,-42.6477"></polygon>
</g>
<!-- 6 -->
<g id="node17" class="node">
<title>6</title>
<ellipse fill="none" stroke="#000000" cx="387" cy="-18" rx="27" ry="18"></ellipse>
<text text-anchor="middle" x="387" y="-13.8" font-family="Times,serif" font-size="14.00" fill="#000000">6</text>
</g>
<!-- 5&#45;6&#45;&gt;6 -->
<g id="edge16" class="edge">
<title>5-6-&gt;6</title>
<path fill="none" stroke="#000000" d="M359.7146,-72.5708C363.9597,-64.0807 369.1536,-53.6929 373.8663,-44.2674"></path>
<polygon fill="#000000" stroke="#000000" points="377.024,-45.7782 378.3657,-35.2687 370.763,-42.6477 377.024,-45.7782"></polygon>
</g>
</g>
</svg>